<?xml version="1.0" encoding="UTF-8"?>
<svg xmlns="http://www.w3.org/2000/svg" xmlns:xlink="http://www.w3.org/1999/xlink" version="1.2" >
<font id="Bebas">
<font-face  font-family="Bebas" units-per-em="1408" ascent="700" descent="-200" font-style="normal" font-weight="400" font-stretch="normal" cap-height="1056" x-height="704" underline-position="-75" underline-thickness="50" />
<missing-glyph  horiz-adv-x="704" d="M88 0 L88 1652 L616 1652 L616 0 L88 0 Z M176 88 L528 88 L528 1564 L176 1564 L176 88 Z " />
<glyph glyph-name="space" unicode="&#x20;" horiz-adv-x="130" d="" />
<glyph glyph-name="exclam" unicode="&#x21;" horiz-adv-x="319" d="M65 553 L65 1254 L254 1254 L254 553 L240 311 L79 311 L65 553 Z M65 0 L65 189 L254 189 L254 0 L65 0 Z " />
<glyph glyph-name="quotedbl" unicode="&#x22;" horiz-adv-x="529" d="M94 1166 L65 1452 L240 1452 L211 1166 L94 1166 Z M318 1166 L289 1452 L464 1452 L435 1166 L318 1166 Z " />
<glyph glyph-name="numbersign" unicode="&#x23;" horiz-adv-x="1154" d="M863 725 L823 487 L1018 487 L989 297 L792 297 L743 0 L554 0 L603 297 L440 297 L391 0 L202 0 L251 297 L65 297 L94 487 L282 487 L322 725 L136 725 L165 915 L353 915 L409 1255 L598 1255 L542 915 L705 915 L761 1255 L950 1255 L894 915 L1089 915 L1060 725 L863 725 Z M673 725 L511 725 L472 487 L634 487 L673 725 Z " />
<glyph glyph-name="dollar" unicode="&#x24;" horiz-adv-x="756" d="M690 321 Q694 159 599 69 Q542 16 458 1 L458 -87 L298 -87 L298 5 Q185 34 124 139 Q72 229 65 349 L246 362 Q258 251 303 204 Q337 167 381 169 Q443 171 480 230 Q499 259 499 313 Q499 390 429 468 Q372 521 260 627 Q173 710 134 779 Q85 865 85 966 Q85 1063 131 1143 Q187 1242 298 1269 L298 1350 L458 1350 L458 1269 Q534 1252 584 1205 Q672 1123 682 990 L500 957 Q492 1033 456 1078 Q432 1108 382 1108 Q330 1108 303 1062 Q281 1025 281 970 Q281 884 355 794 Q382 762 438 715 Q504 661 526 638 Q596 566 633 500 Q688 402 690 321 Z " />
<glyph glyph-name="percent" unicode="&#x25;" horiz-adv-x="1000" d="M379 793 Q379 729 332.5 683 Q286 637 222 637 Q157 637 111 683 Q65 729 65 793 L65 1151 Q65 1216 111 1262 Q157 1308 222 1308 Q287 1308 333 1261.5 Q379 1215 379 1151 L379 793 Z M162 795 Q162 771 178.5 754.5 Q195 738 219 738 Q243 738 259.5 754.5 Q276 771 276 795 L276 1153 Q276 1177 259.5 1193.5 Q243 1210 219 1210 Q195 1210 178.5 1193.5 Q162 1177 162 1153 L162 795 Z M779 664 Q844 664 889.5 617.5 Q935 571 935 507 L935 149 Q935 84 889 39 Q843 -6 779 -6 Q714 -6 668 39.5 Q622 85 622 149 L622 507 Q622 572 668 618 Q714 664 779 664 Z M833 509 Q833 533 816.5 549.5 Q800 566 776 566 Q752 566 735.5 549.5 Q719 533 719 509 L719 151 Q719 127 735.5 110.5 Q752 94 776 94 Q800 94 816.5 110.5 Q833 127 833 151 L833 509 Z M236 -21 L125 -21 L765 1305 L875 1305 L236 -21 Z " />
<glyph glyph-name="ampersand" unicode="&#x26;" horiz-adv-x="872" d="M802 590 Q757 390 680 252 Q753 185 807 185 L807 10 Q697 10 580 110 Q468 -8 340 -8 Q192 -8 114 114 Q65 191 65 290 Q65 387 112 492 Q120 509 165 584 Q190 624 215 661 L176 750 Q148 812 138 838 Q118 889 110 930 Q101 975 101 1018 Q101 1102 138 1172 Q176 1246 248 1283 Q305 1314 374 1314 Q451 1314 515 1275.5 Q579 1237 613 1169 Q640 1114 640 1050 Q640 937 561 835 L520 782 Q464 709 417 645 Q480 514 559 400 Q606 507 631 628 L802 590 Z M275 1019 Q275 963 333 825 Q345 840 357 855 L382 888 L422 941 Q466 999 466 1049 Q466 1086 456 1106 Q431 1169 374 1169 Q325 1169 297 1116 Q275 1074 275 1019 Z M340 166 Q397 166 461 238 Q384 337 306 480 Q288 450 270 418 Q240 349 240 290 Q240 238 263 205 Q290 166 340 166 Z " />
<glyph glyph-name="quotesingle" unicode="&#x27;" horiz-adv-x="305" d="M65 1452 L240 1452 L211 1166 L94 1166 L65 1452 Z " />
<glyph glyph-name="parenleft" unicode="&#x28;" horiz-adv-x="505" d="M437 1370 Q383 1258 341 1141 Q275 956 254 803 Q246 743 246 687 Q246 504 343 216 Q386 90 440 -30 L318 -92 Q247 24 191 155 Q65 448 65 687 Q65 876 144 1088 Q164 1141 191 1199 Q248 1323 318 1426 L437 1370 Z " />
<glyph glyph-name="parenright" unicode="&#x29;" horiz-adv-x="504" d="M187 1425 Q256 1322 313 1198 Q439 924 439 686 Q439 447 313 154 Q257 23 187 -92 L65 -30 Q120 92 162 215 Q228 408 251 569 Q259 630 259 686 Q259 873 163 1140 Q121 1257 68 1369 L187 1425 Z " />
<glyph glyph-name="asterisk" unicode="&#x2a;" horiz-adv-x="626" d="M561 1016 L408 989 L512 881 L382 785 L310 922 L237 785 L105 881 L216 991 L65 1016 L117 1167 L254 1100 L232 1255 L391 1255 L369 1098 L512 1167 L561 1016 Z " />
<glyph glyph-name="plus" unicode="&#x2b;" horiz-adv-x="774" d="M457 683 L709 683 L709 543 L457 543 L457 291 L317 291 L317 543 L65 543 L65 683 L317 683 L317 935 L457 935 L457 683 Z " />
<glyph glyph-name="comma" unicode="&#x2c;" horiz-adv-x="320" d="M65 0 L65 188 L255 188 L255 0 L186 -144 L106 -144 L151 0 L65 0 Z " />
<glyph glyph-name="&amp;#x2d;" unicode="&#x2d;" horiz-adv-x="690" d="M65 721 L625 721 L625 531 L65 531 L65 721 Z " />
<glyph glyph-name="&amp;#x2010;" unicode="&#x2010;" horiz-adv-x="690" d="M65 721 L625 721 L625 531 L65 531 L65 721 Z " />
<glyph glyph-name="period" unicode="&#x2e;" horiz-adv-x="319" d="M65 188 L254 188 L254 -1 L65 -1 L65 188 Z " />
<glyph glyph-name="slash" unicode="&#x2f;" horiz-adv-x="807" d="M588 1333 L742 1333 L219 -38 L65 -38 L588 1333 Z " />
<glyph glyph-name="zero" unicode="0" horiz-adv-x="729" d="M664 286 Q664 161 576 74 Q488 -13 365 -13 Q240 -13 152.5 74.5 Q65 162 65 286 L65 970 Q65 1095 153 1182.5 Q241 1270 365 1270 Q490 1270 577 1182 Q664 1094 664 970 L664 286 Z M468 974 Q468 1019 436 1051 Q404 1083 359 1083 Q314 1083 282.5 1051 Q251 1019 251 974 L251 289 Q251 244 282.5 212 Q314 180 359 180 Q404 180 436 212 Q468 244 468 289 L468 974 Z " />
<glyph glyph-name="one" unicode="1" horiz-adv-x="480" d="M225 0 L225 965 L65 965 L65 1097 Q133 1105 194.5 1148.5 Q256 1192 283 1254 L415 1254 L415 0 L225 0 Z " />
<glyph glyph-name="two" unicode="2" horiz-adv-x="746" d="M68 900 Q68 1078 164 1172 Q247 1255 382 1255 Q506 1255 593.5 1162 Q681 1069 681 945 Q681 817 624 698 Q593 632 479 471 Q448 427 387 334 L353 283 Q320 233 303 204 Q295 190 295 187 L666 186 L666 1 L65 1 L65 174 Q65 180 107 243 Q126 272 150 307 L199 378 Q242 437 334 567 Q421 689 464 788 Q499 869 499 939 Q499 996 467 1036 Q432 1078 377 1078 Q298 1078 265 987 Q254 957 254 915 L254 867 L68 867 L68 900 Z " />
<glyph glyph-name="three" unicode="3" horiz-adv-x="743" d="M359 180 Q489 180 489 301 L489 375 Q489 568 287 568 L287 730 Q396 730 448 791 Q496 846 496 945 L496 974 Q496 1097 388 1097 Q328 1097 300 1051 Q279 1016 279 960 L279 927 L94 927 L94 956 Q94 1090 162 1174 Q239 1270 379 1270 Q512 1270 592 1180 Q664 1099 664 978 L664 925 Q664 808 594 723 Q564 687 524 662 Q608 615 654 519 Q678 470 678 400 L678 301 Q678 162 583 73 Q492 -13 364 -13 Q239 -13 152 75 Q65 163 65 286 L65 317 L245 331 L249 287 Q253 240 282.5 210 Q312 180 359 180 Z " />
<glyph glyph-name="four" unicode="4" horiz-adv-x="774" d="M65 461 L399 1255 L588 1255 L588 461 L709 461 L709 271 L588 271 L588 1 L399 1 L399 271 L65 271 L65 461 Z M399 461 L399 852 L243 461 L399 461 Z " />
<glyph glyph-name="five" unicode="5" horiz-adv-x="715" d="M274 1065 L274 796 Q302 836 353 858 Q380 869 416 869 Q540 869 599 782 Q650 707 650 570 L650 300 Q650 161 562 72 Q478 -14 350 -14 Q226 -14 144 76 Q65 162 65 286 L65 316 L246 330 L250 287 Q257 212 311 187 Q327 179 345 179 Q461 179 461 300 L461 607 Q461 662 421 698 Q402 715 368 715 Q318 715 294 676 Q274 642 274 604 L274 570 L84 570 L84 1255 L637 1255 L637 1065 L274 1065 Z " />
<glyph glyph-name="six" unicode="6" horiz-adv-x="700" d="M438 943 L438 974 Q438 1020 413.5 1051.5 Q389 1083 344 1083 Q299 1083 274.5 1051.5 Q250 1020 250 974 L250 724 Q315 782 393 782 Q518 782 580 695 Q635 619 635 484 L635 269 L634 269 Q628 149 547.5 68 Q467 -13 350 -13 Q225 -13 144 76 Q65 162 65 286 L65 970 Q65 1062 109.5 1136 Q154 1210 236 1246 Q288 1270 350 1270 Q474 1270 556 1180 Q635 1094 635 970 L635 943 L438 943 Z M251 289 Q251 243 274 213 Q299 180 344 180 Q389 180 414 213 Q438 243 438 289 L438 521 Q438 575 398 611 Q379 628 345 628 Q296 628 271 589 Q251 557 251 518 L251 289 Z " />
<glyph glyph-name="seven" unicode="7" horiz-adv-x="698" d="M633 1255 L633 1065 L368 1 L183 1 L448 1065 L65 1065 L65 1255 L633 1255 Z " />
<glyph glyph-name="eight" unicode="8" horiz-adv-x="744" d="M679 286 Q679 161 591 74 Q503 -13 379 -13 L364 -13 Q239 -13 152 75 Q65 163 65 286 L65 400 Q65 515 142 601 Q175 638 219 662 Q143 701 101 792 Q80 839 80 910 L80 978 Q80 1100 152 1180 Q232 1270 364 1270 L379 1270 Q512 1270 592 1180 Q664 1099 664 978 L664 910 Q664 793 594 716 Q563 682 525 662 Q609 615 655 519 Q679 470 679 400 L679 286 Z M490 375 Q490 487 439 525 Q415 543 372 543 Q297 543 270 479 Q254 440 254 375 L254 315 Q254 253 292 215 Q324 183 372 181 Q449 185 479 257 Q490 281 490 315 L490 375 Z M496 927 Q494 1056 415 1089 Q397 1097 372 1097 Q323 1097 292 1070 Q267 1048 256.5 1013.5 Q246 979 248 927 Q251 845 274 809 Q304 761 372 761 Q440 761 471 812 Q497 855 496 927 Z " />
<glyph glyph-name="nine" unicode="9" horiz-adv-x="700" d="M350 1270 Q474 1270 556 1180 Q635 1094 635 970 L635 286 Q635 161 553.5 74 Q472 -13 350 -13 Q225 -13 144 76 Q65 162 65 286 L65 313 L261 313 L261 282 Q261 236 285.5 205 Q310 174 355 174 Q400 174 424.5 205 Q449 236 449 282 L449 533 Q383 474 306 474 Q182 474 120 561 Q65 637 65 773 L65 988 L66 988 Q70 1075 115.5 1144.5 Q161 1214 239 1248 Q290 1270 350 1270 Z M449 968 Q449 1014 424.5 1045.5 Q400 1077 355 1077 Q310 1077 285.5 1045.5 Q261 1014 261 968 L261 736 Q261 681 301 645 Q319 628 354 628 Q426 628 444 704 Q449 727 449 739 L449 968 Z " />
<glyph glyph-name="colon" unicode="&#x3a;" horiz-adv-x="320" d="M65 188 L255 188 L255 0 L65 0 L65 188 Z M65 720 L255 720 L255 531 L65 531 L65 720 Z " />
<glyph glyph-name="semicolon" unicode="&#x3b;" horiz-adv-x="319" d="M65 188 L254 188 L254 -1 L186 -145 L106 -145 L150 -1 L65 -1 L65 188 Z M65 720 L254 720 L254 531 L65 531 L65 720 Z " />
<glyph glyph-name="less" unicode="&#x3c;" horiz-adv-x="757" d="M692 954 L692 795 L261 617 L692 436 L692 278 L65 549 L65 686 L692 954 Z " />
<glyph glyph-name="equal" unicode="&#x3d;" horiz-adv-x="774" d="M65 711 L65 851 L709 851 L709 711 L65 711 Z M65 437 L65 577 L709 577 L709 437 L65 437 Z " />
<glyph glyph-name="greater" unicode="&#x3e;" horiz-adv-x="757" d="M65 954 L692 683 L692 546 L65 278 L65 436 L496 615 L65 795 L65 954 Z " />
<glyph glyph-name="question" unicode="&#x3f;" horiz-adv-x="727" d="M370 1270 Q522 1270 600 1161 Q662 1075 662 959 Q662 765 487 590 Q426 529 422 448 Q420 421 420 388 L420 313 L230 313 L230 388 Q230 565 317 651 Q411 744 446 842 Q466 899 466 962 Q466 1027 437 1064 Q405 1107 344 1099 Q287 1092 262 1020 Q251 990 247 950 L65 982 Q75 1099 143 1179 Q189 1233 271 1257 Q314 1270 370 1270 Z M230 181 L420 181 L420 -9 L230 -9 L230 181 Z " />
<glyph glyph-name="at" unicode="&#x40;" horiz-adv-x="1408" d="M1137 192 L1343 192 L1324 168 Q1219 36 1059 -39 Q903 -111 731 -111 Q447 -111 256 80 Q65 271 65 585 Q65 897 243 1111 Q421 1325 738 1325 Q929 1325 1048 1252 Q1329 1080 1329 724 Q1329 523 1217 358 Q1090 172 897 172 Q795 172 763 255 Q716 212 680 194 Q636 172 577 172 Q436 172 360 286 Q294 384 294 533 Q294 720 382 879 Q487 1069 660 1069 Q769 1069 840 976 L850 1043 L1039 1043 L930 354 Q930 337 945 337 Q1003 337 1063 400 Q1108 448 1139 514 Q1180 602 1180 724 Q1180 925 1060.5 1049.5 Q941 1174 741 1174 Q511 1174 362.5 1016.5 Q214 859 214 593 Q214 350 349 198 Q490 39 730 39 Q950 39 1133 188 L1137 192 Z M752 520 Q786 648 786 763 Q786 822 765 862 Q739 913 685 913 Q583 913 530 741 Q492 619 492 487 Q492 425 514 379 Q543 319 598 319 Q664 319 705 390 Q728 430 752 520 Z " />
<glyph glyph-name="A" unicode="A" horiz-adv-x="813" d="M308 288 L262 0 L65 0 L278 1253 L538 1253 L748 0 L550 0 L505 288 L308 288 Z M407 966 L337 472 L477 472 L407 966 Z " />
<glyph glyph-name="B" unicode="B" horiz-adv-x="767" d="M65 0 L65 1254 L348 1254 Q460 1254 550 1195 Q627 1145 660 1040 Q678 984 678 907 Q678 781 611 705 Q583 673 545 656 Q608 632 652 561 Q681 513 695 437 Q702 398 702 350 Q702 231 657 148 Q622 83 558 44 Q486 0 415 0 L65 0 Z M269 187 L348 187 Q444 187 481 286 Q494 320 494 364 Q494 469 454 517 Q418 561 348 561 L269 561 L269 187 Z M269 742 L348 742 Q436 742 466 828 Q477 860 477 907 Q477 985 439 1025 Q404 1062 348 1062 L269 1062 L269 742 Z " />
<glyph glyph-name="C" unicode="C" horiz-adv-x="729" d="M365 -16 Q240 -16 152.5 71.5 Q65 159 65 283 L65 967 Q65 1092 153 1179.5 Q241 1267 365 1267 Q490 1267 577 1179 Q664 1091 664 967 L664 824 L468 824 L468 971 Q468 1016 436 1048 Q404 1080 359 1080 Q314 1080 282.5 1048 Q251 1016 251 971 L251 285 Q251 240 282.5 208.5 Q314 177 359 177 Q404 177 436 208.5 Q468 240 468 285 L468 458 L664 458 L664 283 Q664 158 576 71 Q488 -16 365 -16 Z " />
<glyph glyph-name="D" unicode="D" horiz-adv-x="724" d="M659 300 Q659 176 572 88 Q485 0 362 0 L65 0 L65 1254 L362 1254 Q486 1254 572.5 1166 Q659 1078 659 955 L659 300 Z M254 187 L368 187 Q413 187 444 219.5 Q475 252 475 296 L475 952 Q475 997 443.5 1029 Q412 1061 368 1061 L254 1061 L254 187 Z " />
<glyph glyph-name="E" unicode="E" horiz-adv-x="668" d="M65 0 L65 1254 L603 1254 L603 1065 L254 1065 L254 722 L509 722 L509 532 L254 532 L254 189 L603 189 L603 0 L65 0 Z " />
<glyph glyph-name="F" unicode="F" horiz-adv-x="668" d="M254 0 L65 0 L65 1254 L603 1254 L603 1065 L254 1065 L254 722 L509 722 L509 532 L254 532 L254 0 Z " />
<glyph glyph-name="G" unicode="G" horiz-adv-x="729" d="M365 -16 Q240 -16 152.5 72 Q65 160 65 283 L65 967 Q65 1092 153 1179.5 Q241 1267 365 1267 Q490 1267 577 1179 Q664 1091 664 967 L664 824 L468 824 L468 971 Q468 1016 436 1048 Q404 1080 359 1080 Q314 1080 282.5 1048 Q251 1016 251 971 L251 285 Q251 240 282.5 208.5 Q314 177 359 177 Q404 177 436 208.5 Q468 240 468 285 L468 532 L363 532 L363 721 L664 721 L664 283 Q664 158 576 71 Q488 -16 365 -16 Z " />
<glyph glyph-name="H" unicode="H" horiz-adv-x="736" d="M255 531 L255 0 L65 0 L65 1253 L255 1253 L255 721 L481 721 L481 1253 L671 1253 L671 0 L481 0 L481 531 L255 531 Z " />
<glyph glyph-name="I" unicode="I" horiz-adv-x="319" d="M254 0 L65 0 L65 1253 L254 1253 L254 0 Z " />
<glyph glyph-name="J" unicode="J" horiz-adv-x="546" d="M481 284 Q481 159 393.5 72.5 Q306 -14 182 -14 Q110 -14 65 1 L92 177 Q124 171 147 171 Q161 170 187 172 Q233 175 264.5 205 Q296 235 296 280 L296 1251 L481 1251 L481 284 Z " />
<glyph glyph-name="K" unicode="K" horiz-adv-x="796" d="M255 396 L255 0 L65 0 L65 1254 L255 1254 L255 807 L485 1254 L687 1254 L428 741 L731 0 L509 0 L311 508 L255 396 Z " />
<glyph glyph-name="L" unicode="L" horiz-adv-x="645" d="M580 0 L65 0 L65 1253 L254 1253 L254 188 L580 188 L580 0 Z " />
<glyph glyph-name="M" unicode="M" horiz-adv-x="1007" d="M254 0 L65 0 L65 1254 L336 1254 L512 355 L681 1254 L942 1254 L942 0 L753 0 L753 788 L589 0 L437 0 L254 786 L254 0 Z " />
<glyph glyph-name="N" unicode="N" horiz-adv-x="782" d="M278 1254 L528 412 L528 1254 L717 1254 L717 0 L514 0 L254 803 L254 0 L65 0 L65 1254 L278 1254 Z " />
<glyph glyph-name="O" unicode="O" horiz-adv-x="729" d="M364 1269 Q489 1269 576.5 1181 Q664 1093 664 969 L664 285 Q664 160 576 72.5 Q488 -15 364 -15 Q239 -15 152 73 Q65 161 65 285 L65 969 Q65 1094 153 1181.5 Q241 1269 364 1269 Z M467 973 Q467 1018 435.5 1049.5 Q404 1081 359 1081 Q314 1081 282 1049.5 Q250 1018 250 973 L250 287 Q250 242 282 210.5 Q314 179 359 179 Q404 179 435.5 210.5 Q467 242 467 287 L467 973 Z " />
<glyph glyph-name="P" unicode="P" horiz-adv-x="724" d="M363 1253 Q501 1253 583 1166 Q659 1083 659 954 L659 772 Q659 648 572.5 560 Q486 472 363 472 L254 472 L254 0 L65 0 L65 1253 L363 1253 Z M476 951 Q476 1000 446.5 1030 Q417 1060 368 1060 L254 1060 L254 659 L368 659 Q413 659 444.5 691 Q476 723 476 768 L476 951 Z " />
<glyph glyph-name="Q" unicode="Q" horiz-adv-x="761" d="M664 285 Q664 204 624 135 Q649 106 696 106 L696 -70 Q554 -70 502 19 Q439 -15 365 -15 Q240 -15 152.5 73 Q65 161 65 285 L65 969 Q65 1094 153 1181.5 Q241 1269 365 1269 Q490 1269 577 1180.5 Q664 1092 664 969 L664 285 Z M468 973 Q468 1018 436 1049.5 Q404 1081 359 1081 Q314 1081 282.5 1049.5 Q251 1018 251 973 L251 287 Q251 242 282.5 210.5 Q314 179 359 179 Q404 179 436 210.5 Q468 242 468 287 L468 973 Z " />
<glyph glyph-name="R" unicode="R" horiz-adv-x="764" d="M363 1253 Q521 1253 595 1166 Q660 1090 660 954 L660 772 Q660 639 559 547 L699 0 L495 0 L380 473 Q372 472 363 472 L254 472 L254 0 L65 0 L65 1253 L363 1253 Z M476 951 Q476 1060 368 1060 L254 1060 L254 659 L368 659 Q413 659 444.5 691 Q476 723 476 768 L476 951 Z " />
<glyph glyph-name="S" unicode="S" horiz-adv-x="755" d="M690 312 Q692 181 622 88 Q576 25 492 -1 Q447 -15 387 -15 Q276 -15 203 40 Q142 85 106.5 162.5 Q71 240 65 340 L245 353 Q257 244 303 195 Q337 158 381 160 Q443 162 480 221 Q499 250 499 304 Q499 382 428 459 Q372 512 260 618 Q166 709 127 781 Q85 862 85 957 Q85 1128 200 1216 Q271 1269 376 1269 Q477 1269 549 1224 Q605 1189 639.5 1126 Q674 1063 681 981 L500 948 Q492 1025 456 1068 Q430 1099 381 1099 Q329 1099 302 1053 Q280 1016 280 961 Q280 875 354 786 Q382 752 438 706 Q504 651 525 629 Q595 559 633 491 Q651 459 662 432 Q689 365 690 312 Z " />
<glyph glyph-name="T" unicode="T" horiz-adv-x="720" d="M266 1064 L65 1064 L65 1253 L655 1253 L655 1064 L455 1064 L455 0 L266 0 L266 1064 Z " />
<glyph glyph-name="U" unicode="U" horiz-adv-x="729" d="M364 -14 Q239 -14 152 73 Q65 160 65 284 L65 1253 L250 1253 L250 286 Q250 241 282 209.5 Q314 178 359 178 Q404 178 435.5 209.5 Q467 241 467 286 L467 1253 L664 1253 L664 284 Q664 158 576 72 Q488 -14 364 -14 Z " />
<glyph glyph-name="V" unicode="V" horiz-adv-x="842" d="M289 0 L65 1253 L263 1253 L420 278 L579 1253 L777 1253 L549 0 L289 0 Z " />
<glyph glyph-name="W" unicode="W" horiz-adv-x="1105" d="M842 1253 L1040 1253 L844 0 L663 0 L556 684 L456 0 L275 0 L65 1253 L263 1253 L362 582 L453 1253 L651 1253 L750 582 L842 1253 Z " />
<glyph glyph-name="X" unicode="X" horiz-adv-x="827" d="M762 0 L559 0 L414 398 L268 0 L65 0 L311 630 L65 1253 L274 1253 L414 866 L553 1253 L762 1253 L516 630 L762 0 Z " />
<glyph glyph-name="Y" unicode="Y" horiz-adv-x="826" d="M318 525 L65 1254 L273 1254 L413 804 L552 1254 L761 1254 L507 525 L507 0 L318 0 L318 525 Z " />
<glyph glyph-name="Z" unicode="Z" horiz-adv-x="682" d="M617 1253 L617 1064 L269 188 L617 188 L617 0 L65 0 L65 188 L414 1064 L65 1064 L65 1253 L617 1253 Z " />
<glyph glyph-name="bracketleft" unicode="&#x5b;" horiz-adv-x="448" d="M65 1332 L383 1332 L383 1142 L255 1142 L255 187 L383 187 L383 -1 L65 -1 L65 1332 Z " />
<glyph glyph-name="backslash" unicode="&#x5c;" horiz-adv-x="807" d="M65 1332 L218 1332 L742 -38 L588 -38 L65 1332 Z " />
<glyph glyph-name="bracketright" unicode="&#x5d;" horiz-adv-x="447" d="M65 1333 L382 1333 L382 -1 L65 -1 L65 188 L193 188 L193 1143 L65 1143 L65 1333 Z " />
<glyph glyph-name="asciicircum" unicode="&#x5e;" horiz-adv-x="534" d="M313 1452 L469 1101 L339 1101 L268 1272 L197 1101 L65 1101 L221 1452 L313 1452 Z " />
<glyph glyph-name="underscore" unicode="&#x5f;" horiz-adv-x="1097" d="M65 -210 L65 -71 L1032 -71 L1032 -210 L65 -210 Z " />
<glyph glyph-name="grave" unicode="&#x60;" horiz-adv-x="407" d="M65 1416 L240 1416 L342 1129 L225 1129 L65 1416 Z " />
<glyph glyph-name="a" unicode="a" horiz-adv-x="813" d="M308 288 L262 0 L65 0 L278 1253 L538 1253 L748 0 L550 0 L505 288 L308 288 Z M407 966 L337 472 L477 472 L407 966 Z " />
<glyph glyph-name="b" unicode="b" horiz-adv-x="767" d="M65 0 L65 1254 L348 1254 Q460 1254 550 1195 Q627 1145 660 1040 Q678 984 678 907 Q678 781 611 705 Q583 673 545 656 Q608 632 652 561 Q681 513 695 437 Q702 398 702 350 Q702 231 657 148 Q622 83 558 44 Q486 0 415 0 L65 0 Z M269 187 L348 187 Q444 187 481 286 Q494 320 494 364 Q494 469 454 517 Q418 561 348 561 L269 561 L269 187 Z M269 742 L348 742 Q436 742 466 828 Q477 860 477 907 Q477 985 439 1025 Q404 1062 348 1062 L269 1062 L269 742 Z " />
<glyph glyph-name="c" unicode="c" horiz-adv-x="729" d="M365 -16 Q240 -16 152.5 71.5 Q65 159 65 283 L65 967 Q65 1092 153 1179.5 Q241 1267 365 1267 Q490 1267 577 1179 Q664 1091 664 967 L664 824 L468 824 L468 971 Q468 1016 436 1048 Q404 1080 359 1080 Q314 1080 282.5 1048 Q251 1016 251 971 L251 285 Q251 240 282.5 208.5 Q314 177 359 177 Q404 177 436 208.5 Q468 240 468 285 L468 458 L664 458 L664 283 Q664 158 576 71 Q488 -16 365 -16 Z " />
<glyph glyph-name="d" unicode="d" horiz-adv-x="724" d="M659 300 Q659 176 572 88 Q485 0 362 0 L65 0 L65 1254 L362 1254 Q486 1254 572.5 1166 Q659 1078 659 955 L659 300 Z M254 187 L368 187 Q413 187 444 219.5 Q475 252 475 296 L475 952 Q475 997 443.5 1029 Q412 1061 368 1061 L254 1061 L254 187 Z " />
<glyph glyph-name="e" unicode="e" horiz-adv-x="668" d="M65 0 L65 1254 L603 1254 L603 1065 L254 1065 L254 722 L509 722 L509 532 L254 532 L254 189 L603 189 L603 0 L65 0 Z " />
<glyph glyph-name="f" unicode="f" horiz-adv-x="668" d="M254 0 L65 0 L65 1254 L603 1254 L603 1065 L254 1065 L254 722 L509 722 L509 532 L254 532 L254 0 Z " />
<glyph glyph-name="g" unicode="g" horiz-adv-x="729" d="M365 -16 Q240 -16 152.5 72 Q65 160 65 283 L65 967 Q65 1092 153 1179.5 Q241 1267 365 1267 Q490 1267 577 1179 Q664 1091 664 967 L664 824 L468 824 L468 971 Q468 1016 436 1048 Q404 1080 359 1080 Q314 1080 282.5 1048 Q251 1016 251 971 L251 285 Q251 240 282.5 208.5 Q314 177 359 177 Q404 177 436 208.5 Q468 240 468 285 L468 532 L363 532 L363 721 L664 721 L664 283 Q664 158 576 71 Q488 -16 365 -16 Z " />
<glyph glyph-name="h" unicode="h" horiz-adv-x="736" d="M255 531 L255 0 L65 0 L65 1253 L255 1253 L255 721 L481 721 L481 1253 L671 1253 L671 0 L481 0 L481 531 L255 531 Z " />
<glyph glyph-name="i" unicode="i" horiz-adv-x="319" d="M254 0 L65 0 L65 1253 L254 1253 L254 0 Z " />
<glyph glyph-name="j" unicode="j" horiz-adv-x="546" d="M481 284 Q481 159 393.5 72.5 Q306 -14 182 -14 Q110 -14 65 1 L92 177 Q124 171 147 171 Q161 170 187 172 Q233 175 264.5 205 Q296 235 296 280 L296 1251 L481 1251 L481 284 Z " />
<glyph glyph-name="k" unicode="k" horiz-adv-x="796" d="M255 396 L255 0 L65 0 L65 1254 L255 1254 L255 807 L485 1254 L687 1254 L428 741 L731 0 L509 0 L311 508 L255 396 Z " />
<glyph glyph-name="l" unicode="l" horiz-adv-x="645" d="M580 0 L65 0 L65 1253 L254 1253 L254 188 L580 188 L580 0 Z " />
<glyph glyph-name="m" unicode="m" horiz-adv-x="1007" d="M254 0 L65 0 L65 1254 L336 1254 L512 355 L681 1254 L942 1254 L942 0 L753 0 L753 788 L589 0 L437 0 L254 786 L254 0 Z " />
<glyph glyph-name="n" unicode="n" horiz-adv-x="782" d="M278 1254 L528 412 L528 1254 L717 1254 L717 0 L514 0 L254 803 L254 0 L65 0 L65 1254 L278 1254 Z " />
<glyph glyph-name="o" unicode="o" horiz-adv-x="729" d="M364 1269 Q489 1269 576.5 1181 Q664 1093 664 969 L664 285 Q664 160 576 72.5 Q488 -15 364 -15 Q239 -15 152 73 Q65 161 65 285 L65 969 Q65 1094 153 1181.5 Q241 1269 364 1269 Z M467 973 Q467 1018 435.5 1049.5 Q404 1081 359 1081 Q314 1081 282 1049.5 Q250 1018 250 973 L250 287 Q250 242 282 210.5 Q314 179 359 179 Q404 179 435.5 210.5 Q467 242 467 287 L467 973 Z " />
<glyph glyph-name="p" unicode="p" horiz-adv-x="724" d="M363 1253 Q501 1253 583 1166 Q659 1083 659 954 L659 772 Q659 648 572.5 560 Q486 472 363 472 L254 472 L254 0 L65 0 L65 1253 L363 1253 Z M476 951 Q476 1000 446.5 1030 Q417 1060 368 1060 L254 1060 L254 659 L368 659 Q413 659 444.5 691 Q476 723 476 768 L476 951 Z " />
<glyph glyph-name="q" unicode="q" horiz-adv-x="761" d="M664 285 Q664 204 624 135 Q649 106 696 106 L696 -70 Q554 -70 502 19 Q439 -15 365 -15 Q240 -15 152.5 73 Q65 161 65 285 L65 969 Q65 1094 153 1181.5 Q241 1269 365 1269 Q490 1269 577 1180.5 Q664 1092 664 969 L664 285 Z M468 973 Q468 1018 436 1049.5 Q404 1081 359 1081 Q314 1081 282.5 1049.5 Q251 1018 251 973 L251 287 Q251 242 282.5 210.5 Q314 179 359 179 Q404 179 436 210.5 Q468 242 468 287 L468 973 Z " />
<glyph glyph-name="r" unicode="r" horiz-adv-x="764" d="M363 1253 Q521 1253 595 1166 Q660 1090 660 954 L660 772 Q660 639 559 547 L699 0 L495 0 L380 473 Q372 472 363 472 L254 472 L254 0 L65 0 L65 1253 L363 1253 Z M476 951 Q476 1060 368 1060 L254 1060 L254 659 L368 659 Q413 659 444.5 691 Q476 723 476 768 L476 951 Z " />
<glyph glyph-name="s" unicode="s" horiz-adv-x="755" d="M690 312 Q692 181 622 88 Q576 25 492 -1 Q447 -15 387 -15 Q276 -15 203 40 Q142 85 106.5 162.5 Q71 240 65 340 L245 353 Q257 244 303 195 Q337 158 381 160 Q443 162 480 221 Q499 250 499 304 Q499 382 428 459 Q372 512 260 618 Q166 709 127 781 Q85 862 85 957 Q85 1128 200 1216 Q271 1269 376 1269 Q477 1269 549 1224 Q605 1189 639.5 1126 Q674 1063 681 981 L500 948 Q492 1025 456 1068 Q430 1099 381 1099 Q329 1099 302 1053 Q280 1016 280 961 Q280 875 354 786 Q382 752 438 706 Q504 651 525 629 Q595 559 633 491 Q651 459 662 432 Q689 365 690 312 Z " />
<glyph glyph-name="t" unicode="t" horiz-adv-x="720" d="M266 1064 L65 1064 L65 1253 L655 1253 L655 1064 L455 1064 L455 0 L266 0 L266 1064 Z " />
<glyph glyph-name="u" unicode="u" horiz-adv-x="729" d="M364 -14 Q239 -14 152 73 Q65 160 65 284 L65 1253 L250 1253 L250 286 Q250 241 282 209.5 Q314 178 359 178 Q404 178 435.5 209.5 Q467 241 467 286 L467 1253 L664 1253 L664 284 Q664 158 576 72 Q488 -14 364 -14 Z " />
<glyph glyph-name="v" unicode="v" horiz-adv-x="842" d="M289 0 L65 1253 L263 1253 L420 278 L579 1253 L777 1253 L549 0 L289 0 Z " />
<glyph glyph-name="w" unicode="w" horiz-adv-x="1105" d="M842 1253 L1040 1253 L844 0 L663 0 L556 684 L456 0 L275 0 L65 1253 L263 1253 L362 582 L453 1253 L651 1253 L750 582 L842 1253 Z " />
<glyph glyph-name="x" unicode="x" horiz-adv-x="827" d="M762 0 L559 0 L414 398 L268 0 L65 0 L311 630 L65 1253 L274 1253 L414 866 L553 1253 L762 1253 L516 630 L762 0 Z " />
<glyph glyph-name="y" unicode="y" horiz-adv-x="826" d="M318 525 L65 1254 L273 1254 L413 804 L552 1254 L761 1254 L507 525 L507 0 L318 0 L318 525 Z " />
<glyph glyph-name="z" unicode="z" horiz-adv-x="682" d="M617 1253 L617 1064 L269 188 L617 188 L617 0 L65 0 L65 188 L414 1064 L65 1064 L65 1253 L617 1253 Z " />
<glyph glyph-name="braceleft" unicode="&#x7b;" horiz-adv-x="536" d="M164 1102 Q164 1241 237 1296 Q306 1349 471 1349 L471 1218 Q384 1218 353 1194 Q322 1170 322 1096 L322 828 Q322 780 297 735 Q270 686 228 669 Q267 654 295 606 Q322 562 322 510 L322 241 Q322 166 353 143 Q384 120 471 120 L471 -11 Q306 -11 237 42 Q164 97 164 236 L164 429 Q164 533 155 558 Q134 615 65 620 L65 717 Q134 723 155 780 Q164 804 164 908 L164 1102 Z " />
<glyph glyph-name="bar" unicode="&#x7c;" horiz-adv-x="310" d="M65 1651 L245 1651 L245 -103 L65 -103 L65 1651 Z " />
<glyph glyph-name="braceright" unicode="&#x7d;" horiz-adv-x="536" d="M395 744 Q413 713 471 708 L471 611 Q428 607 411 593.5 Q394 580 382 549 Q376 533 374 501 Q373 486 373 420 L373 227 Q373 88 299 33 Q232 -19 65 -19 L65 111 Q153 111 183.5 134 Q214 157 214 232 L214 501 Q214 547 240.5 595.5 Q267 644 308 660 Q269 676 241.5 723 Q214 770 214 819 L214 1088 Q214 1163 183.5 1186 Q153 1209 65 1209 L65 1340 Q230 1340 299 1287 Q373 1232 373 1093 L373 899 Q373 834 374 819 Q377 775 395 744 Z " />
<glyph glyph-name="asciitilde" unicode="&#x7e;" horiz-adv-x="742" d="M451 1388 Q474 1378 493 1378 Q529 1379 572 1437 L677 1359 Q592 1245 488 1249 Q430 1250 336 1302 Q269 1339 245 1339 Q212 1339 170 1284 L65 1362 Q147 1473 249 1469 Q296 1468 354 1440 Q403 1414 451 1388 Z " />
<glyph glyph-name="uni007F" unicode="&#x7f;" horiz-adv-x="512" d="" />
</font>
</svg>
